HIERARCHY
ROOT hip
{
  OFFSET 0 0 0
  CHANNELS 6 Xposition Yposition Zposition Zrotation Yrotation Xrotation
  JOINT abdomen
  {
    OFFSET 0 20.6881 -0.73152
    CHANNELS 3 Zrotation Xrotation Yrotation
    JOINT chest
    {
      OFFSET 0 11.7043 -0.48768
      CHANNELS 3 Zrotation Xrotation Yrotation
      JOINT neck
      {
        OFFSET 0 22.1894 -2.19456
        CHANNELS 3 Zrotation Xrotation Yrotation
        JOINT head
        {
          OFFSET -0.24384 7.07133 1.2192
          CHANNELS 3 Zrotation Xrotation Yrotation
          JOINT leftEye
          {
            OFFSET 4.14528 8.04674 8.04672
            CHANNELS 3 Zrotation Xrotation Yrotation
            End Site
            {
              OFFSET 1 0 0
            }
          }
          JOINT rightEye
          {
            OFFSET -3.6576 8.04674 8.04672
            CHANNELS 3 Zrotation Xrotation Yrotation
            End Site
            {
              OFFSET 1 0 0
            }
          }
        }
      }
      JOINT rCollar
      {
        OFFSET -2.68224 19.2634 -4.8768
        CHANNELS 3 Zrotation Xrotation Yrotation
        JOINT rShldr
        {
          OFFSET -8.77824 -1.95073 1.46304
          CHANNELS 3 Zrotation Xrotation Yrotation
          JOINT rForeArm
          {
            OFFSET -28.1742 -1.7115 0.48768
            CHANNELS 3 Zrotation Xrotation Yrotation
            JOINT rHand
            {
              OFFSET -22.5879 0.773209 7.07136
              CHANNELS 3 Zrotation Xrotation Yrotation
              JOINT rThumb1
              {
                OFFSET -1.2192 -0.487915 3.41376
                CHANNELS 3 Zrotation Xrotation Yrotation
                JOINT rThumb2
                {
                  OFFSET -3.37035 -0.52449 3.41376
                  CHANNELS 3 Zrotation Xrotation Yrotation
                  End Site
                  {
                    OFFSET -1.78271 -1.18214 1.43049
                  }
                }
              }
              JOINT rIndex1
              {
                OFFSET -7.75947 0.938293 5.60832
                CHANNELS 3 Zrotation Xrotation Yrotation
                JOINT rIndex2
                {
                  OFFSET -2.54057 -0.884171 1.56538
                  CHANNELS 3 Zrotation Xrotation Yrotation
                  End Site
                  {
                    OFFSET -1.62519 -0.234802 1.16502
                  }
                }
              }
              JOINT rMid1
              {
                OFFSET -8.24714 1.18213 3.41376
                CHANNELS 3 Zrotation Xrotation Yrotation
                JOINT rMid2
                {
                  OFFSET -3.10165 -0.590103 1.0647
                  CHANNELS 3 Zrotation Xrotation Yrotation
                  End Site
                  {
                    OFFSET -2.48547 -0.328903 0.83742
                  }
                }
              }
              JOINT rRing1
              {
                OFFSET -8.82822 0.546677 1.51678
                CHANNELS 3 Zrotation Xrotation Yrotation
                JOINT rRing2
                {
                  OFFSET -2.60934 -0.819778 -0.0198488
                  CHANNELS 3 Zrotation Xrotation Yrotation
                  End Site
                  {
                    OFFSET -2.33842 -0.294052 0.168128
                  }
                }
              }
              JOINT rPinky1
              {
                OFFSET -8.27202 -0.0477905 -0.4584
                CHANNELS 3 Zrotation Xrotation Yrotation
                JOINT rPinky2
                {
                  OFFSET -1.82734 -0.647385 -0.700984
                  CHANNELS 3 Zrotation Xrotation Yrotation
                  End Site
                  {
                    OFFSET -1.69225 -0.51767 -0.607171
                  }
                }
              }
            }
          }
        }
      }
      JOINT lCollar
      {
        OFFSET 2.68224 19.2634 -4.8768
        CHANNELS 3 Zrotation Xrotation Yrotation
        JOINT lShldr
        {
          OFFSET 8.77824 -1.95073 1.46304
          CHANNELS 3 Zrotation Xrotation Yrotation
          JOINT lForeArm
          {
            OFFSET 28.1742 -1.7115 0.48768
            CHANNELS 3 Zrotation Xrotation Yrotation
            JOINT lHand
            {
              OFFSET 22.5879 0.773209 7.07136
              CHANNELS 3 Zrotation Xrotation Yrotation
              JOINT lThumb1
              {
                OFFSET 1.2192 -0.487915 3.41376
                CHANNELS 3 Zrotation Xrotation Yrotation
                JOINT lThumb2
                {
                  OFFSET 3.37035 -0.52449 3.41376
                  CHANNELS 3 Zrotation Xrotation Yrotation
                  End Site
                  {
                    OFFSET 1.78271 -1.18214 1.43049
                  }
                }
              }
              JOINT lIndex1
              {
                OFFSET 7.75947 0.938293 5.60832
                CHANNELS 3 Zrotation Xrotation Yrotation
                JOINT lIndex2
                {
                  OFFSET 2.54057 -0.884171 1.56538
                  CHANNELS 3 Zrotation Xrotation Yrotation
                  End Site
                  {
                    OFFSET 1.62519 -0.234802 1.16502
                  }
                }
              }
              JOINT lMid1
              {
                OFFSET 8.24714 1.18213 3.41376
                CHANNELS 3 Zrotation Xrotation Yrotation
                JOINT lMid2
                {
                  OFFSET 3.10165 -0.590103 1.0647
                  CHANNELS 3 Zrotation Xrotation Yrotation
                  End Site
                  {
                    OFFSET 2.48547 -0.328903 0.83742
                  }
                }
              }
              JOINT lRing1
              {
                OFFSET 8.82822 0.546677 1.51678
                CHANNELS 3 Zrotation Xrotation Yrotation
                JOINT lRing2
                {
                  OFFSET 2.60934 -0.819778 -0.0198488
                  CHANNELS 3 Zrotation Xrotation Yrotation
                  End Site
                  {
                    OFFSET 2.33842 -0.294052 0.168128
                  }
                }
              }
              JOINT lPinky1
              {
                OFFSET 8.27202 -0.0477905 -0.4584
                CHANNELS 3 Zrotation Xrotation Yrotation
                JOINT lPinky2
                {
                  OFFSET 1.82734 -0.647385 -0.700984
                  CHANNELS 3 Zrotation Xrotation Yrotation
                  End Site
                  {
                    OFFSET 1.69225 -0.51767 -0.607171
                  }
                }
              }
            }
          }
        }
      }
    }
  }
  JOINT rButtock
  {
    OFFSET -8.77824 4.35084 1.2192
    CHANNELS 3 Zrotation Xrotation Yrotation
    JOINT rThigh
    {
      OFFSET 0 -1.70687 -2.19456
      CHANNELS 3 Zrotation Xrotation Yrotation
      JOINT rShin
      {
        OFFSET 0 -36.8199 0.73152
        CHANNELS 3 Zrotation Xrotation Yrotation
        JOINT rFoot
        {
          OFFSET 0.73152 -45.1104 -5.12064
          CHANNELS 3 Zrotation Xrotation Yrotation
          End Site
          {
            OFFSET -1.1221 -3.69964 12.103
          }
        }
      }
    }
  }
  JOINT lButtock
  {
    OFFSET 8.77824 4.35084 1.2192
    CHANNELS 3 Zrotation Xrotation Yrotation
    JOINT lThigh
    {
      OFFSET 0 -1.70687 -2.19456
      CHANNELS 3 Zrotation Xrotation Yrotation
      JOINT lShin
      {
        OFFSET 0 -36.8199 0.73152
        CHANNELS 3 Zrotation Xrotation Yrotation
        JOINT lFoot
        {
          OFFSET -0.73152 -45.1104 -5.12064
          CHANNELS 3 Zrotation Xrotation Yrotation
          End Site
          {
            OFFSET 1.1221 -3.69964 12.103
          }
        }
      }
    }
  }
}
MOTION
Frames:	9
Frame Time:	0.00833333
-62.2737 68.4109 8.76478 -15.3768 80.8732 5.423 4.28034 9.18541 0.712389 5.01103 -20.4383 1.18226 -8.0338 -6.59374 -7.9332 10.2978 3.42039 -12.7189 -0.0 0.0 0.0 -0.0 0.0 0.0 -1.01705e-13 1.53652e-12 -3.97308e-13 68.2388 55.1458 -16.7372 -26.0956 -23.7093 56.2739 -0.000837811 0.834553 0.117279 1.33942e-10 1.86184e-09 1.89324e-09 2.3673e-10 3.21828e-09 3.26658e-09 1.33956e-10 1.86184e-09 1.89323e-09 7.73091 5.47488 0.417314 1.33943e-10 1.86184e-09 1.89324e-09 2.90554 0.965183 0.102902 1.33943e-10 1.86184e-09 1.89324e-09 10.2786 0.731801 0.0259123 1.33934e-10 1.86184e-09 1.89325e-09 2.22167 -0.733487 -0.20892 -1.0183e-13 1.53652e-12 -3.97526e-13 -67.9659 34.4797 -5.75309 25.3832 -21.9984 -54.3444 0.0115635 3.19144 -0.448969 6.57197e-10 -2.4594e-09 -8.88944e-11 1.13983e-09 -4.24932e-09 -1.49926e-10 6.57187e-10 -2.45941e-09 -8.88873e-11 -7.73091 5.47488 -0.417314 6.57194e-10 -2.45941e-09 -8.8897e-11 -2.90554 0.965183 -0.102902 6.57188e-10 -2.45941e-09 -8.8894e-11 -10.2786 0.731801 -0.0259123 6.57201e-10 -2.45941e-09 -8.89033e-11 -2.22167 -0.733487 0.20892 -2.03217e-16 0.0 -3.88251e-19 26.8733 -50.0953 22.5175 -0.685382 54.6758 1.49164 -2.82565 -25.1168 -6.83525 2.03217e-16 0.0 3.88251e-19 -4.05468 -51.4331 -6.28998 0.944319 59.5505 -1.88141 -11.4998 -18.6317 -27.2055
-61.8379 68.8664 8.67142 -10.9414 76.6433 9.2701 3.5598 8.57814 -0.679861 5.48884 -20.4078 0.852965 -8.40456 -6.57738 -8.14385 11.5423 4.92243 -13.1464 -0.0 0.0 0.0 -0.0 0.0 0.0 -9.46231e-14 1.15882e-12 -5.05837e-13 67.4442 55.0223 -18.5341 -26.839 -25.8228 60.022 -0.000336361 0.35506 0.0498859 3.85907e-10 1.17498e-09 4.66337e-10 6.74496e-10 2.03386e-09 8.01645e-10 3.85931e-10 1.17498e-09 4.66328e-10 7.73091 5.47488 0.417314 3.85909e-10 1.17498e-09 4.66345e-10 2.90554 0.965183 0.102902 3.85909e-10 1.17498e-09 4.66343e-10 10.2786 0.731801 0.0259123 3.859e-10 1.17498e-09 4.66349e-10 2.22167 -0.733487 -0.20892 -9.4719e-14 1.15882e-12 -5.05971e-13 -63.9538 32.9101 -10.3409 26.048 -23.6195 -57.1188 0.0197021 4.0599 -0.571538 -1.12733e-09 -2.79883e-09 2.14523e-09 -1.93994e-09 -4.835e-09 3.71458e-09 -1.12734e-09 -2.79883e-09 2.14525e-09 -7.73091 5.47488 -0.417314 -1.12733e-09 -2.79884e-09 2.14524e-09 -2.90554 0.965183 -0.102902 -1.12734e-09 -2.79884e-09 2.14524e-09 -10.2786 0.731801 -0.0259123 -1.12733e-09 -2.79884e-09 2.14523e-09 -2.22167 -0.733487 0.20892 -2.03217e-16 0.0 -3.88251e-19 27.5709 -48.8954 24.4203 -0.686004 54.4225 1.43788 -1.87851 -24.2736 -4.93693 2.03217e-16 0.0 3.88251e-19 -1.51892 -49.7524 -1.64231 0.886664 58.1493 -1.73044 -11.9054 -19.1482 -26.9886
-61.3885 69.5756 8.52518 -7.9025 72.4903 11.8157 2.78424 7.88785 -2.07986 5.94359 -20.3785 0.518492 -8.70763 -6.39535 -8.29528 12.7172 6.43059 -13.5466 -0.0 0.0 0.0 -0.0 0.0 0.0 -8.74298e-14 8.73459e-13 -5.78911e-13 66.2269 55.0654 -19.6364 -27.3375 -27.5381 63.3297 -3.33421e-05 -0.16488 -0.0231724 3.78575e-10 9.61832e-11 -1.96876e-11 6.62031e-10 1.70401e-10 -3.77365e-11 3.78604e-10 9.61907e-11 -1.97035e-11 7.73091 5.47488 0.417314 3.78578e-10 9.61809e-11 -1.96813e-11 2.90554 0.965183 0.102902 3.78576e-10 9.61802e-11 -1.96837e-11 10.2786 0.731801 0.0259123 3.78569e-10 9.61839e-11 -1.96781e-11 2.22167 -0.733487 -0.20892 -8.75065e-14 8.7346e-13 -5.7901e-13 -60.3617 31.2908 -13.9872 26.6976 -25.3761 -59.8843 0.0289795 4.85359 -0.683779 -2.10139e-09 -2.96247e-09 3.55355e-09 -3.62054e-09 -5.1164e-09 6.14993e-09 -2.10139e-09 -2.96247e-09 3.55357e-09 -7.73091 5.47488 -0.417314 -2.10139e-09 -2.96247e-09 3.55356e-09 -2.90554 0.965183 -0.102902 -2.1014e-09 -2.96247e-09 3.55356e-09 -10.2786 0.731801 -0.0259123 -2.10138e-09 -2.96247e-09 3.55356e-09 -2.22167 -0.733487 0.20892 -2.03217e-16 0.0 -3.88251e-19 27.5095 -47.2747 25.4859 -0.648117 53.3943 1.35285 -0.888036 -22.7985 -2.81213 2.03217e-16 0.0 3.88251e-19 0.513269 -47.4218 2.37431 0.794416 56.1571 -1.54138 -12.0024 -19.6064 -26.312
-60.8769 70.5757 8.51654 -6.8948 68.3041 12.17 1.87402 7.07764 -3.65984 6.43958 -20.3518 0.140736 -8.96619 -6.04124 -8.38922 13.8768 7.89265 -13.9288 -0.0 0.0 0.0 -0.0 0.0 0.0 -8.3861e-14 7.24829e-13 -6.2293e-13 64.275 55.3047 -20.0376 -27.7779 -29.3011 66.2012 -0.000186258 -0.748241 -0.105152 -1.04826e-10 -2.18292e-09 1.24113e-09 -1.77295e-10 -3.77144e-09 2.1411e-09 -1.04797e-10 -2.18291e-09 1.24111e-09 7.73091 5.47488 0.417314 -1.04823e-10 -2.18293e-09 1.24113e-09 2.90554 0.965183 0.102902 -1.04825e-10 -2.18293e-09 1.24113e-09 10.2786 0.731801 0.0259123 -1.04832e-10 -2.18292e-09 1.24114e-09 2.22167 -0.733487 -0.20892 -8.39343e-14 7.24829e-13 -6.23077e-13 -56.9673 29.5737 -16.7783 27.3826 -27.5228 -62.8667 0.0376885 5.54284 -0.781427 -1.79869e-09 -2.92694e-09 3.81904e-09 -3.09647e-09 -5.05166e-09 6.60675e-09 -1.79869e-09 -2.92694e-09 3.81906e-09 -7.73091 5.47488 -0.417314 -1.79869e-09 -2.92694e-09 3.81905e-09 -2.90554 0.965183 -0.102902 -1.79869e-09 -2.92694e-09 3.81905e-09 -10.2786 0.731801 -0.0259123 -1.79868e-09 -2.92694e-09 3.81905e-09 -2.22167 -0.733487 0.20892 -2.03217e-16 0.0 -3.88251e-19 26.602 -45.2205 25.6607 -0.581161 51.5666 1.24751 0.18537 -20.9534 -0.0962332 2.03217e-16 0.0 3.88251e-19 2.29566 -44.4628 6.17157 0.689877 53.563 -1.33063 -11.5793 -19.6537 -25.1035
-60.3655 71.888 8.69813 -5.8711 63.5861 12.5743 0.801816 6.14207 -5.38923 6.96326 -20.3144 -0.275505 -9.21572 -5.55726 -8.45632 15.0698 9.41418 -14.3309 -0.0 0.0 0.0 -0.0 0.0 0.0 -8.02509e-14 6.22269e-13 -6.4583e-13 61.7787 55.736 -19.9677 -28.1358 -31.1684 68.9898 -0.00175538 -1.40483 -0.197464 -9.17882e-10 -5.38435e-09 3.57239e-09 -1.5891e-09 -9.30979e-09 6.16959e-09 -9.17856e-10 -5.38434e-09 3.57237e-09 7.73091 5.47488 0.417314 -9.1788e-10 -5.38436e-09 3.5724e-09 2.90554 0.965183 0.102902 -9.17882e-10 -5.38435e-09 3.5724e-09 10.2786 0.731801 0.0259123 -9.17889e-10 -5.38435e-09 3.5724e-09 2.22167 -0.733487 -0.20892 -8.03289e-14 6.22269e-13 -6.46075e-13 -53.696 27.7026 -18.9671 27.9517 -29.8592 -66.2641 0.0477869 6.24366 -0.880979 -7.55684e-10 -2.7188e-09 3.44604e-09 -1.29405e-09 -4.68717e-09 5.95796e-09 -7.55682e-10 -2.7188e-09 3.44606e-09 -7.73091 5.47488 -0.417314 -7.55683e-10 -2.7188e-09 3.44605e-09 -2.90554 0.965183 -0.102902 -7.55688e-10 -2.7188e-09 3.44605e-09 -10.2786 0.731801 -0.0259123 -7.55676e-10 -2.7188e-09 3.44605e-09 -2.22167 -0.733487 0.20892 -2.03217e-16 0.0 -3.88251e-19 25.0736 -42.7686 25.225 -0.500566 49.0529 1.13234 1.19091 -18.7664 3.03015 2.03217e-16 0.0 3.88251e-19 3.62642 -40.9349 9.65808 0.594231 50.39 -1.11256 -10.7752 -19.381 -23.4592
-59.7272 73.6081 8.76721 -4.6091 58.8029 13.0067 -0.259712 5.17487 -6.90359 7.38024 -20.2729 -0.648035 -9.37639 -4.92652 -8.47095 16.1329 11.0345 -14.7083 -0.0 0.0 0.0 -0.0 0.0 0.0 -7.0942e-14 5.33911e-13 -6.27256e-13 59.2957 56.3443 -19.277 -28.3128 -32.6594 71.3404 -0.00488222 -2.07557 -0.29183 -1.68267e-09 -7.89775e-09 5.66797e-09 -2.91675e-09 -1.36575e-08 9.79066e-09 -1.68265e-09 -7.89773e-09 5.66795e-09 7.73091 5.47488 0.417314 -1.68267e-09 -7.89776e-09 5.66797e-09 2.90554 0.965183 0.102902 -1.68267e-09 -7.89776e-09 5.66798e-09 10.2786 0.731801 0.0259123 -1.68268e-09 -7.89775e-09 5.66798e-09 2.22167 -0.733487 -0.20892 -7.1026e-14 5.3391e-13 -6.27601e-13 -50.7837 26.0666 -20.3802 28.2603 -31.9145 -69.7363 0.0591442 6.93582 -0.979585 3.80823e-10 -2.37072e-09 2.7696e-09 6.69084e-10 -4.08234e-09 4.7849e-09 3.80826e-10 -2.37072e-09 2.76962e-09 -7.73091 5.47488 -0.417314 3.80826e-10 -2.37071e-09 2.76961e-09 -2.90554 0.965183 -0.102902 3.80822e-10 -2.37071e-09 2.76961e-09 -10.2786 0.731801 -0.0259123 3.80833e-10 -2.37071e-09 2.7696e-09 -2.22167 -0.733487 0.20892 -2.03217e-16 0.0 -3.88251e-19 23.264 -39.9524 24.4117 -0.408131 45.8232 1.00654 1.75766 -15.6172 5.75847 2.03217e-16 0.0 3.88251e-19 4.0034 -36.9902 12.0128 0.502049 46.6443 -0.892429 -9.95582 -19.4802 -21.4581
-58.9391 75.6955 8.96703 -3.4596 53.6151 13.039 -1.104 4.26972 -7.84145 7.55569 -20.2346 -0.89481 -9.37017 -4.13187 -8.40791 16.8984 12.7945 -15.0166 -0.0 0.0 0.0 -0.0 0.0 0.0 -5.02767e-14 4.27885e-13 -5.46857e-13 57.356 57.1041 -17.7904 -28.3424 -33.3795 72.687 -0.00895876 -2.70143 -0.379946 -2.02126e-09 -8.11277e-09 6.22173e-09 -3.50361e-09 -1.40276e-08 1.07473e-08 -2.02125e-09 -8.11276e-09 6.22171e-09 7.73091 5.47488 0.417314 -2.02126e-09 -8.11278e-09 6.22173e-09 2.90554 0.965183 0.102902 -2.02126e-09 -8.11278e-09 6.22173e-09 10.2786 0.731801 0.0259123 -2.02127e-09 -8.11277e-09 6.22174e-09 2.22167 -0.733487 -0.20892 -5.03614e-14 4.27884e-13 -5.47254e-13 -48.4159 25.0319 -20.8497 28.3437 -33.3966 -72.7148 0.0713514 7.59907 -1.07435 9.64032e-10 -1.91537e-09 2.12477e-09 1.67529e-09 -3.29657e-09 3.66896e-09 9.64036e-10 -1.91538e-09 2.12479e-09 -7.73091 5.47488 -0.417314 9.64037e-10 -1.91536e-09 2.12477e-09 -2.90554 0.965183 -0.102902 9.64033e-10 -1.91536e-09 2.12477e-09 -10.2786 0.731801 -0.0259123 9.64044e-10 -1.91536e-09 2.12477e-09 -2.22167 -0.733487 0.20892 -2.03217e-16 0.0 -3.88251e-19 21.4806 -36.8062 23.4231 -0.307533 41.8475 0.870265 1.5931 -10.9275 7.33371 2.03217e-16 0.0 3.88251e-19 3.25391 -32.7958 12.6229 0.406538 42.3321 -0.673099 -9.37755 -20.6811 -19.1467
-58.0796 78.1176 9.44572 -2.8605 47.8977 12.3089 -1.70002 3.52862 -8.07917 7.3747 -20.3088 -0.992839 -9.16596 -3.0276 -8.24062 17.289 14.8475 -15.2562 -0.0 0.0 0.0 -0.0 0.0 0.0 -2.98045e-15 2.76145e-13 -3.51743e-13 55.9689 58.0082 -14.9758 -28.3125 -33.1797 72.4917 -0.0133364 -3.23864 -0.455676 -1.69378e-09 -4.28337e-09 4.19362e-09 -2.93203e-09 -7.39756e-09 7.24192e-09 -1.69377e-09 -4.28336e-09 4.1936e-09 7.73091 5.47488 0.417314 -1.69378e-09 -4.28337e-09 4.19362e-09 2.90554 0.965183 0.102902 -1.69378e-09 -4.28338e-09 4.19362e-09 10.2786 0.731801 0.0259123 -1.69379e-09 -4.28337e-09 4.19363e-09 2.22167 -0.733487 -0.20892 -3.05707e-15 2.76146e-13 -3.5212e-13 -46.4676 24.7869 -20.212 28.3722 -34.5313 -74.9249 0.0844278 8.26873 -1.17026 6.47534e-10 -1.32571e-09 1.47858e-09 1.12539e-09 -2.28734e-09 2.55502e-09 6.47538e-10 -1.32571e-09 1.4786e-09 -7.73091 5.47488 -0.417314 6.4754e-10 -1.3257e-09 1.47859e-09 -2.90554 0.965183 -0.102902 6.47535e-10 -1.3257e-09 1.47859e-09 -10.2786 0.731801 -0.0259123 6.47546e-10 -1.3257e-09 1.47859e-09 -2.22167 -0.733487 0.20892 -2.03217e-16 0.0 -3.88251e-19 19.6294 -32.9288 22.1639 -0.191145 36.5675 0.704972 0.587144 -3.11432 8.25795 2.03217e-16 0.0 3.88251e-19 1.69074 -27.982 11.448 0.309221 37.0402 -0.452174 -8.81775 -23.5847 -16.0617
-57.3818 80.8087 10.1535 -2.7534 41.6981 11.113 -2.11067 2.87434 -7.82186 6.93516 -20.4564 -0.986373 -8.8185 -1.6685 -7.99261 17.4006 17.1265 -15.457 -0.0 0.0 0.0 -0.0 0.0 0.0 6.33407e-14 1.02204e-13 -6.859e-14 54.7141 58.9787 -10.9236 -28.2444 -32.37 71.113 -0.0178847 -3.72803 -0.524758 -9.48143e-10 2.29273e-09 5.10829e-10 -1.63306e-09 3.98642e-09 8.76894e-10 -9.48134e-10 2.29274e-09 5.10814e-10 7.73091 5.47488 0.417314 -9.48142e-10 2.29273e-09 5.10822e-10 2.90554 0.965183 0.102902 -9.4814e-10 2.29272e-09 5.10827e-10 10.2786 0.731801 0.0259123 -9.4815e-10 2.29273e-09 5.10832e-10 2.22167 -0.733487 -0.20892 6.32768e-14 1.02209e-13 -6.89037e-14 -44.8361 25.0918 -18.6151 28.4019 -35.5757 -76.5965 0.0985119 8.94202 -1.26701 -1.65734e-10 -5.96222e-10 6.93125e-10 -2.84165e-10 -1.04243e-09 1.20305e-09 -1.65733e-10 -5.96227e-10 6.93144e-10 -7.73091 5.47488 -0.417314 -1.65728e-10 -5.96211e-10 6.93128e-10 -2.90554 0.965183 -0.102902 -1.65735e-10 -5.96219e-10 6.9313e-10 -10.2786 0.731801 -0.0259123 -1.65724e-10 -5.96216e-10 6.9313e-10 -2.22167 -0.733487 0.20892 -2.03217e-16 0.0 -3.88251e-19 17.7866 -28.3905 20.7391 -0.0868342 30.1824 0.535595 -1.06342 7.00448 8.94037 2.03217e-16 0.0 3.88251e-19 -0.0270582 -22.5305 9.18376 0.233136 30.9034 -0.23889 -7.8049 -27.6991 -12.2135
